PathFileType	4	(X/Y/Z)	C:/Users/Carlo/Dropbox/Carlos/SARAH/CongressoMarcha2025/WorkshopOpenSim/C3D/Caso02/Static.c3d.trc
DataRate	CameraRate	NumFrames	NumMarkers	Units	OrigDataRate	OrigDataStartFrame	OrigNumFrames
100.000000	100.000000	2	141	mm	100.000000	37	100
Frame#	Time	LFHD			RFHD			LBHD			RBHD			C7			T10			CLAV			STRN			RBAK			LSHO			LUPA			LELB			LFRM			LWRA			LWRB			LFIN			RSHO			RUPA			RELB			RFRM			RWRA			RWRB			RFIN			LASI			RASI			LPSI			RPSI			LTHI			LKNE			LTIB			LANK			LHEE			LTOE			RTHI			RKNE			RTIB			RANK			RHEE			RTOE			PELO			PELA			PELL			PELP			LFEO			LFEA			LFEL			LFEP			LTIO			LTIA			LTIL			LTIP			LFOO			LFOA			LFOL			LFOP			LTOO			LTOA			LTOL			LTOP			RFEO			RFEA			RFEL			RFEP			RTIO			RTIA			RTIL			RTIP			RFOO			RFOA			RFOL			RFOP			RTOO			RTOA			RTOL			RTOP			HEDO			HEDA			HEDL			HEDP			LCLO			LCLA			LCLL			LCLP			RCLO			RCLA			RCLL			RCLP			TRXO			TRXA			TRXL			TRXP			LHUO			LHUA			LHUL			LHUP			LRAO			LRAA			LRAL			LRAP			LHNO			LHNA			LHNL			LHNP			RHUO			RHUA			RHUL			RHUP			RRAO			RRAA			RRAL			RRAP			RHNO			RHNA			RHNL			RHNP			LHipAngles			LKneeAngles			LAbsAnkleAngle			LAnkleAngles			RHipAngles			RKneeAngles			RAnkleAngles			RAbsAnkleAngle			LPelvisAngles			RPelvisAngles			LFootProgressAngles			RFootProgressAngles			RNeckAngles			LNeckAngles			RSpineAngles			LSpineAngles			LShoulderAngles			LElbowAngles			LWristAngles			RShoulderAngles			RElbowAngles			RWristAngles			RThoraxAngles			LThoraxAngles			RHeadAngles			LHeadAngles			
		X1	Y1	Z1	X2	Y2	Z2	X3	Y3	Z3	X4	Y4	Z4	X5	Y5	Z5	X6	Y6	Z6	X7	Y7	Z7	X8	Y8	Z8	X9	Y9	Z9	X10	Y10	Z10	X11	Y11	Z11	X12	Y12	Z12	X13	Y13	Z13	X14	Y14	Z14	X15	Y15	Z15	X16	Y16	Z16	X17	Y17	Z17	X18	Y18	Z18	X19	Y19	Z19	X20	Y20	Z20	X21	Y21	Z21	X22	Y22	Z22	X23	Y23	Z23	X24	Y24	Z24	X25	Y25	Z25	X26	Y26	Z26	X27	Y27	Z27	X28	Y28	Z28	X29	Y29	Z29	X30	Y30	Z30	X31	Y31	Z31	X32	Y32	Z32	X33	Y33	Z33	X34	Y34	Z34	X35	Y35	Z35	X36	Y36	Z36	X37	Y37	Z37	X38	Y38	Z38	X39	Y39	Z39	X40	Y40	Z40	X41	Y41	Z41	X42	Y42	Z42	X43	Y43	Z43	X44	Y44	Z44	X45	Y45	Z45	X46	Y46	Z46	X47	Y47	Z47	X48	Y48	Z48	X49	Y49	Z49	X50	Y50	Z50	X51	Y51	Z51	X52	Y52	Z52	X53	Y53	Z53	X54	Y54	Z54	X55	Y55	Z55	X56	Y56	Z56	X57	Y57	Z57	X58	Y58	Z58	X59	Y59	Z59	X60	Y60	Z60	X61	Y61	Z61	X62	Y62	Z62	X63	Y63	Z63	X64	Y64	Z64	X65	Y65	Z65	X66	Y66	Z66	X67	Y67	Z67	X68	Y68	Z68	X69	Y69	Z69	X70	Y70	Z70	X71	Y71	Z71	X72	Y72	Z72	X73	Y73	Z73	X74	Y74	Z74	X75	Y75	Z75	X76	Y76	Z76	X77	Y77	Z77	X78	Y78	Z78	X79	Y79	Z79	X80	Y80	Z80	X81	Y81	Z81	X82	Y82	Z82	X83	Y83	Z83	X84	Y84	Z84	X85	Y85	Z85	X86	Y86	Z86	X87	Y87	Z87	X88	Y88	Z88	X89	Y89	Z89	X90	Y90	Z90	X91	Y91	Z91	X92	Y92	Z92	X93	Y93	Z93	X94	Y94	Z94	X95	Y95	Z95	X96	Y96	Z96	X97	Y97	Z97	X98	Y98	Z98	X99	Y99	Z99	X100	Y100	Z100	X101	Y101	Z101	X102	Y102	Z102	X103	Y103	Z103	X104	Y104	Z104	X105	Y105	Z105	X106	Y106	Z106	X107	Y107	Z107	X108	Y108	Z108	X109	Y109	Z109	X110	Y110	Z110	X111	Y111	Z111	X112	Y112	Z112	X113	Y113	Z113	X114	Y114	Z114	X115	Y115	Z115	X116	Y116	Z116	X117	Y117	Z117	X118	Y118	Z118	X119	Y119	Z119	X120	Y120	Z120	X121	Y121	Z121	X122	Y122	Z122	X123	Y123	Z123	X124	Y124	Z124	X125	Y125	Z125	X126	Y126	Z126	X127	Y127	Z127	X128	Y128	Z128	X129	Y129	Z129	X130	Y130	Z130	X131	Y131	Z131	X132	Y132	Z132	X133	Y133	Z133	X134	Y134	Z134	X135	Y135	Z135	X136	Y136	Z136	X137	Y137	Z137	X138	Y138	Z138	X139	Y139	Z139	X140	Y140	Z140	X141	Y141	Z141	

38	0.37	-356.2307434082032	1741.985229492188	390.8144836425784	-481.3359680175784	1730.870971679688	367.7407836914064	-328.7338256835939	1698.333618164063	242.3030090332032	-470.0160827636721	1696.809692382813	230.1796722412111	-403.8806152343752	1519.275634765625	210.5041046142579	-404.7066650390627	1256.842407226563	161.9239501953126	-411.4905090332034	1467.967651367188	354.9334411621095	-410.2670898437502	1288.530517578125	405.2909851074221	-454.4835510253909	1351.387817382813	139.036849975586	-225.8738098144532	1502.871459960938	259.8385314941407	-94.77373504638675	1457.68896484375	273.1334533691407	57.3178405761719	1406.570922851563	298.1184997558595	34.31795120239259	1412.76513671875	429.7801208496096	-77.30598449707034	1396.9951171875	524.886169433594	-8.352164268493656	1393.914428710938	559.2491455078127	-61.95134353637698	1421.188720703125	619.8872070312502	-590.3114013671877	1505.658935546875	246.9551696777345	-760.314636230469	1438.277587890625	228.1046600341798	-867.5335083007817	1401.59375	244.2800292968751	-836.296752929688	1441.427001953125	380.3270874023439	-783.3596191406255	1437.62109375	494.4944152832034	-858.6763305664067	1429.272827148438	505.3395690917971	-813.0925903320317	1464.268432617188	576.992370605469	-302.1889038085939	1026.9501953125	357.3188476562501	-519.3291625976565	1031.132568359375	358.0617675781251	-346.8838500976564	1034.643432617188	167.8104248046876	-484.7995910644534	1031.436157226563	166.8186340332032	-213.5555267333986	758.028259277344	316.7627868652345	-237.3755645751954	523.5875244140627	286.8037414550782	-202.5076599121095	317.6433105468751	241.4317626953126	-208.9228363037111	79.79716491699222	220.5984039306642	-251.0235137939454	38.20886993408205	169.1471710205079	-230.8532257080079	44.62907791137697	365.8605346679689	-591.0870361328127	668.3895263671877	312.1831665039064	-565.063903808594	513.0836181640627	296.3764648437501	-593.8281250000002	267.2505493164064	247.5461273193361	-586.9645996093752	83.272331237793	220.6867980957032	-533.2172851562502	46.59018325805665	165.7058105468751	-570.7490844726565	42.86993408203126	363.5234985351564	-412.8395690917971	930.1099243164067	306.5530395507814	-412.4463806152346	927.440063476563	436.5044250488284	-282.8850708007814	927.6068725585942	306.1084289550782	-410.3279113769534	1060.037841796875	309.214813232422	-296.0360107421876	517.2469482421877	273.4245605468751	-383.6359252929689	474.4760437011721	677.7723388671877	107.2499694824219	560.8377685546877	365.4053955078126	-347.8711853027345	928.6721191406255	305.7142639160157	-253.2412719726564	74.87017822265628	226.6483306884767	-191.7388153076172	36.48631286621095	645.9234008789065	165.8109130859376	121.457260131836	169.4435272216797	-293.9867248535157	496.0634460449221	271.1846618652345	-225.7378845214845	68.29988098144534	360.3583984375001	-247.3589782714845	257.9058532714845	356.3870849609376	-37.09133911132814	89.39200592041018	340.3268432617189	-245.1973114013673	62.10591125488284	170.577865600586	-219.2514038085939	70.36452484130862	423.6185607910159	-226.4584197998048	133.5665130615235	422.2947998046877	-156.3691864013672	77.39522552490237	416.9413757324221	-225.7378692626954	68.29988098144534	360.3583984375001	-505.8765258789065	509.8074645996096	284.2780151367189	-422.7907714843752	481.5821533203127	698.3879394531252	-91.7560729980469	486.8852844238284	199.6277770996095	-477.8079223632815	931.5476074218755	307.3917846679689	-542.1241455078127	79.48699951171878	220.7426910400392	-547.714782714844	19.32365798950196	631.414733886719	-128.5023803710938	44.56989669799806	221.2581481933595	-507.6536560058596	488.710144042969	281.1630249023439	-581.3001098632815	65.46195983886722	353.5708618164064	-564.965270996094	259.061004638672	360.3109436035157	-391.0020751953127	48.15998840332034	389.3505554199221	-545.0686645507815	69.05329132080081	162.6068420410157	-593.3772583007815	64.26483917236331	417.2254943847659	-587.932312011719	128.7978668212891	419.4722290039065	-529.9446411132815	58.4975280761719	429.1520690917971	-581.3001098632815	65.46198272705081	353.5708618164064	-393.2386169433596	1620.982910156251	214.495330810547	-422.7602844238284	1680.086547851563	432.0644226074221	-167.7982940673829	1631.143676757813	242.3248138427736	-395.7272033691409	1840.310546875001	154.5763549804688	-229.6806945800782	1445.473510742188	267.2537841796876	-146.9622192382813	1463.3916015625	448.4154052734377	-216.5563354492189	1643.355224609376	241.6893920898439	-411.2525329589846	1467.939697265625	347.9375305175782	-587.9160766601565	1448.209838867188	254.5620574951173	-682.9923095703127	1467.523315429688	430.3624267578127	-579.6234130859377	1249.322998046875	280.8966674804689	-411.2525634765627	1467.939697265625	347.9375915527345	-411.2525634765627	1467.939697265625	347.9375610351564	-418.0650634765627	1468.739135742188	548.195739746094	-611.5123291015627	1467.732055664063	341.1258544921876	-411.0722656250002	1267.565673828125	348.7435913085939	45.6005325317383	1364.95556640625	293.311981201172	71.36311340332034	1360.215942382813	6.509277343750004	-35.01271820068361	1088.484375	290.6396789550782	-229.6807250976564	1445.473754882813	267.2536926269532	-43.45302963256837	1388.51123046875	542.6972656250002	178.9904785156251	1322.823608398438	628.3347167968752	-112.6593322753907	1151.161376953125	540.4031372070315	39.36683273315431	1366.604370117188	310.7689514160157	-84.72731781005862	1404.195556640625	700.885925292969	-71.14027404785159	1567.379516601563	688.251403808594	73.65535736083987	1394.283935546875	743.193542480469	-43.45304107666017	1388.51123046875	542.697204589844	-854.0634765625005	1360.450805664063	248.5304565429689	-830.613159179688	1308.191528320313	-25.86251831054689	-938.8462524414067	1621.486816406251	191.569320678711	-587.9161376953127	1448.209838867188	254.5620117187501	-820.0161743164067	1426.759765625	501.7271728515627	-1051.8310546875	1361.972412109375	549.8662719726565	-894.260131835938	1655.348266601563	451.8464355468752	-851.6802368164067	1365.092529296875	266.2542724609376	-799.7068481445317	1452.728271484375	659.4990234375002	-820.5920410156255	1610.836181640626	636.1636962890627	-641.1820068359377	1470.231567382813	636.2119140625002	-820.0161132812505	1426.759765625	501.7270812988284	-8.274415969848636	12.36536121368409	-3.297411918640138	1.950803399085999	-20.41427421569825	1.154139637947083	0	0	7.263215541839603	-3.558574333643873e-13	1.702737450599671	7.266433238983158	-2.689453125000001	11.20927333831787	-1.969361305236817	0.07172527909278872	-11.7225513458252	5.333963871002199	2.512141699089616e-13	-10.54091167449952	6.38274717330933	0	0	6.274606227874759	-1.107228994369507	-0.1733528077602387	1.173633337020874	1.107228994369507	0.1733528077602387	1.173633337020874	-6.538234710693363	-5.851351261138918	-91.86932373046878	-4.906139850616457	-10.74113845825196	-88.92259216308597	2.481820106506349	5.098819255828859	-14.85898303985596	-2.481820106506349	-5.098819255828859	-14.85898303985596	1.205802440643311	2.120286703109742	-1.363923788070679	-1.205802440643311	-2.120286703109742	-1.363923788070679	73.66483306884768	0.205829292535782	3.257012844085695	4.969616946319459e-16	3.839028772070937e-14	105.0747146606446	1.734592437744142	102.3855667114258	-4.713770866394045	71.8110275268555	-10.90028190612793	0.5458658337593081	0	-1.799001269134349e-12	102.8133392333985	-4.990245819091799	99.64996337890631	-1.751365542411805	-0.05152506381273272	-1.948350310325623	-0.2304666191339494	0.05152506381273272	1.948350310325623	-0.2304666191339494	-0.6270993351936343	-7.4604926109314	15.28000736236573	0.6270993351936343	7.4604926109314	15.28000736236573	
39	0.38	-356.1378479003907	1741.972412109376	390.9194641113284	-481.2707214355471	1730.905395507813	367.8814086914064	-328.741424560547	1698.371582031251	242.3667602539064	-470.0510253906252	1696.912109375001	230.288299560547	-403.9273376464846	1519.305297851563	210.5399932861329	-404.7414245605471	1256.866333007813	161.9876403808594	-411.5090332031252	1467.991577148438	354.9647521972657	-410.2549743652346	1288.576538085938	405.3397521972659	-454.513122558594	1351.379760742188	139.0854034423829	-225.9324035644532	1502.911743164063	259.7977600097657	-94.809440612793	1457.759887695313	273.0808105468751	57.18268966674808	1406.518188476563	298.3415832519532	34.35416793823244	1412.915405273438	429.6978149414065	-77.17556762695315	1397.127563476563	524.8350830078127	-8.216257095336918	1394.08740234375	559.1905517578127	-61.78715896606448	1421.368896484375	619.8333740234377	-590.300720214844	1505.668212890625	246.9547576904298	-760.2885742187502	1438.340454101563	228.0725250244142	-867.5393676757817	1401.739501953125	244.2386322021486	-836.4159545898442	1441.769897460938	380.2437133789064	-783.5836791992192	1438.157592773438	494.4365539550784	-858.8679199218755	1429.767578125	505.2695312500002	-813.3864746093755	1464.879272460938	576.8941650390627	-302.1184387207032	1026.920776367188	357.3153381347657	-519.2544555664065	1031.093139648438	358.0992431640626	-346.8706359863282	1034.696899414063	167.7542266845704	-484.8226013183596	1031.513061523438	166.8201904296876	-213.5122375488282	758.0137329101565	316.6845703125001	-237.3344268798829	523.5747070312502	286.7857055664064	-202.507293701172	317.6536254882814	241.4077148437501	-208.9215698242189	79.79450225830081	220.5872650146486	-251.0049133300782	38.20280075073244	169.1319580078126	-230.8375854492189	44.63766479492189	365.8622436523439	-591.032897949219	668.3699340820315	312.0857238769532	-565.5535278320315	513.2332763671877	296.4197998046876	-593.7941894531252	267.2504882812501	247.5051574707032	-586.9685058593752	83.257194519043	220.6883239746095	-533.2056274414065	46.58034133911134	165.6915740966797	-570.7283935546877	42.85971832275392	363.5176696777345	-412.7717895507815	930.1017456054692	306.5194396972657	-412.3552551269534	927.3649902343755	436.4693603515627	-282.8172302246095	927.604614257813	306.0502929687501	-410.2653503417971	1060.0283203125	309.2476501464845	-296.0010375976564	517.2342529296877	273.4336242675782	-383.4242553710939	474.5438232421877	677.8275146484377	107.3268737792969	560.8243408203127	365.2280578613282	-347.8034667968751	928.6672363281255	305.6683349609376	-253.2369537353517	74.86834716796878	226.6604461669923	-191.5195007324219	36.50758361816408	645.891784667969	165.7721099853516	121.4460830688477	169.2377014160157	-293.9532165527345	496.0505676269534	271.1937866210939	-225.7366027832032	68.30776977539065	360.3715820312501	-247.3596191406251	257.9132690429689	356.3863830566407	-37.08979797363283	89.4004821777344	340.342987060547	-245.1914978027345	62.10021972656253	170.591049194336	-219.2516326904298	70.37695312500003	423.6317443847659	-226.4593200683595	133.5787811279297	422.3033447265627	-156.369369506836	77.40788269042972	416.9555664062502	-225.7365875244142	68.30776977539065	360.3715820312501	-506.3635253906252	509.8736267089846	284.3576965332032	-423.5731201171877	481.652282714844	698.4802246093752	-92.2685241699219	486.3694763183596	199.9710693359376	-477.7401428222659	931.5361328125005	307.3705444335939	-542.1251220703127	79.5095138549805	220.8330841064454	-548.472595214844	19.41888046264649	631.5061035156252	-128.4746704101563	44.9396438598633	222.1682281494142	-508.1167602539065	488.7742309570315	281.2432861328126	-581.283630371094	65.47162628173831	353.665008544922	-565.1243896484377	259.0866088867189	360.3714294433595	-390.9688415527346	48.34858703613284	389.4410095214846	-545.0620727539065	69.0632019042969	162.6991882324219	-593.3574829101565	64.27442169189456	417.320251464844	-587.9710693359377	128.8127136230469	419.5557250976565	-529.9192504882815	58.5667533874512	429.2456054687502	-581.283630371094	65.47161865234378	353.665008544922	-393.3064270019534	1621.062744140626	214.547088623047	-422.6741638183596	1680.073486328126	432.1621704101565	-167.8453674316407	1631.113403320313	242.2482147216798	-395.7363281250002	1840.420410156251	154.7359313964844	-229.7275238037111	1445.514282226563	267.2224731445314	-146.9462585449219	1463.470703125	448.3502502441409	-216.6438446044923	1643.393188476563	241.6257476806642	-411.2723388671877	1467.962890625	347.9688415527345	-587.9077148437502	1448.220458984375	254.5725097656251	-683.0076904296877	1467.566528320313	430.3405761718752	-579.623718261719	1249.35205078125	280.9431762695314	-411.2722778320315	1467.963012695313	347.9687805175782	-411.2723388671877	1467.963134765625	347.9688110351564	-418.0472717285159	1468.782348632813	548.2207031250002	-611.525817871094	1467.735717773438	341.1947631835939	-411.0727844238284	1267.5966796875	348.7952880859376	45.44999313354494	1364.904296875	293.5598144531251	71.40393829345706	1359.820556640625	6.828460693359379	-35.28447341918947	1088.51611328125	291.1523742675782	-229.7274627685548	1445.514404296875	267.2224731445314	-43.31928634643556	1388.664428710938	542.6496582031252	178.8494262695313	1323.023681640625	628.0863037109377	-112.5487518310547	1151.662231445313	540.5852661132815	39.236141204834	1366.5673828125	310.9960937500001	-84.52094268798831	1404.403198242188	700.8476562500002	-70.9942321777344	1567.581909179688	688.1362915039065	73.88149261474612	1394.562377929688	743.0816040039065	-43.31927871704103	1388.664428710938	542.6496582031252	-854.0933227539067	1360.596435546875	248.5613250732423	-830.5429077148442	1307.87158203125	-25.72749328613283	-938.7072143554692	1621.577148437501	191.1296844482422	-587.9078369140627	1448.220581054688	254.5725250244142	-820.219116210938	1427.27880859375	501.672790527344	-1052.093994140625	1362.675903320313	549.724548339844	-894.314086914063	1655.815551757813	451.380798339844	-851.7221069335942	1365.26416015625	266.2790527343751	-800.0525512695317	1453.4453125	659.4182128906252	-821.0526733398442	1611.496582031251	635.885681152344	-641.5366821289065	1471.054931640625	636.232116699219	-820.219116210938	1427.27880859375	501.672790527344	-8.268097877502445	12.35140895843507	-3.258823394775392	1.9510977268219	-20.41783905029298	1.162426471710206	0	0	7.267616748809818	-1.578327177070502e-13	1.73351538181305	7.270954132080082	-2.767182588577271	11.1594409942627	-1.927703022956849	0.2069328725337983	-11.78107738494873	5.317712783813478	2.978119866599989e-13	-10.42653465270996	6.391262054443363	0	0	6.285305500030521	-1.104926347732544	-0.183655858039856	1.202930688858033	1.104926347732544	0.183655858039856	1.202930688858033	-6.538796901702884	-5.849984645843508	-91.87342071533206	-4.853237152099611	-10.73816680908203	-88.92253112792972	2.447952270507813	5.076841831207277	-14.82916736602784	-2.447952270507813	-5.076841831207277	-14.82916736602784	1.209956645965577	2.119724988937379	-1.399197697639466	-1.209956645965577	-2.119724988937379	-1.399197697639466	73.63554382324222	0.1607142686843873	3.322440147399904	2.981770114852116e-16	-1.918520464022634e-12	104.9964752197266	1.701858878135682	102.4247283935547	-4.711126804351808	71.84528350830081	-10.99759864807129	0.5384956598281863	3.180554718589512e-15	3.183735176534587e-12	102.792953491211	-4.999585151672365	99.57424926757818	-1.764407515525819	-0.0570512227714062	-1.937681555747987	-0.2363436818122865	0.0570512227714062	1.937681555747987	-0.2363436818122865	-0.6123030185699465	-7.421352386474613	15.25178527832032	0.6123030185699465	7.421352386474613	15.25178527832032	
